<?xml version="1.0" encoding="UTF-8"?>
<svg id="Layer_2" data-name="Layer 2" xmlns="http://www.w3.org/2000/svg" xmlns:xlink="http://www.w3.org/1999/xlink" viewBox="0 0 397.04 413.71">
  <defs>
    <style>
      .cls-1 {
        fill: url(#linear-gradient);
      }
    </style>
    <linearGradient id="linear-gradient" x1="46.59" y1="142.86" x2="351" y2="447.28" gradientUnits="userSpaceOnUse">
      <stop offset="0" stop-color="#5104b6"/>
      <stop offset=".3" stop-color="#b2057e"/>
      <stop offset=".56" stop-color="#db614a"/>
      <stop offset=".89" stop-color="#fef106"/>
    </linearGradient>
  </defs>
  <g id="Layer_1-2" data-name="Layer 1">
    <path class="cls-1" d="M137.25,338.8c-23.2,0-26.15,10.03-33.24,25.12l-5.71,12.15c-4.12,8.75-7.15,17.64-12.45,25.79-4.21,6.48-12.15,11.81-20.04,11.79l-48.21-.15c-9-.03-20.89-14.76-16.74-27.56,2.87-8.84,7.28-16.35,11.18-24.57l15.54-32.8,47.13-98.63,23.76-49.48,8.96-18.95,21.5-45.53L178.59,11.64c1.14-2.4,4.82-5.56,6.89-7.14,11.59-8.85,28.24-4.04,34.51,9.09l38.44,80.41,14.81,31.25,17.83,38.15,44.19,92.84,39.66,83.15,18.87,39.42c4.49,9.37,4.98,20.18-2.58,28.26-4.91,5.25-10.51,6.64-17.57,6.64h-44.83c-9.99-2.85-17.21-10.39-21.47-19.65l-18.59-40.43c-3.67-7.98-11.84-14.79-21.04-14.79l-130.45-.03ZM209.63,256.61c3.59-9.56,7.74-20.28,16.47-26.49,14.07-10.01,30.99-14.12,47.44-18.45l12.76-3.36c-12.37-2.69-23.12-5.21-34.84-9.21-22.88-7.8-32.29-13.67-41.27-37.12-4.69-12.25-5.29-15.23-8.21-27.84l-3.33-14.34c-6,24.97-11.02,62.92-37.29,73.71-7.53,3.09-14.96,6.12-22.88,8.14l-26.51,6.78,11.83,3.03c16.4,4.2,33.06,8.3,47.21,17.95,16.77,11.43,22.56,49.66,27.45,68.93,5.78-18.95,3.95-22.49,11.16-41.72Z"/>
  </g>
</svg>