<?xml version="1.0" encoding="UTF-8"?>
<svg id="Layer_1" data-name="Layer 1" xmlns="http://www.w3.org/2000/svg" viewBox="0 0 168.37 9.25">
  <defs>
    <style>
      .cls-1 {
        fill: #000;
      }

      .cls-1, .cls-2 {
        stroke-width: 0px;
      }

      .cls-2 {
        fill: #fff;
      }
    </style>
  </defs>
  <rect class="cls-1" width="168.37" height="9.25"/>
  <g>
    <rect class="cls-2" y="4" width="21.51" height="1.22"/>
    <rect class="cls-2" x="146.86" y="4" width="21.51" height="1.22"/>
    <g>
      <path class="cls-2" d="M28.32.25v8.73s.01,0,.02,0h1.19s.01,0,.02,0V.25"/>
      <path class="cls-2" d="M125.83,8.98s.01,0,.02,0V.26h-1.22v8.72s.01,0,.02,0h1.19Z"/>
      <path class="cls-2" d="M113.37,4.29c-1.73-.55-2.73-.9-2.73-1.81s.84-1.46,2.09-1.46,2.05.58,1.98,1.69h1.27c.05-1.27-.69-2.71-3.25-2.71-2.23,0-3.37,1.09-3.37,2.52,0,1.63,1.75,2.18,2.65,2.43,1.8.5,2.79.97,2.79,1.8,0,.94-.73,1.45-2.05,1.45-1.46,0-2.35-.66-2.24-1.71h-1.26c-.08,1.23.73,2.76,3.51,2.76,2.57,0,3.33-1.31,3.33-2.53,0-1.37-1.33-1.98-2.72-2.42Z"/>
      <path class="cls-2" d="M39.6,8.98s0,0,.01,0l-.1-6.85,4.58,6.85s0,0,.01,0h1.15s0,0,.01,0V.25h-1.21l.07,6.86L39.58.25h-1.19v8.73s0,0,.01,0h1.2Z"/>
      <path class="cls-2" d="M70.34,8.98s.01,0,.02,0v-3.33h1.63c.14,0,.26-.01.4-.02l1.54,3.36s0,0,.01,0h1.3s.01,0,.02,0l-1.79-3.63c1.14-.4,1.7-1.25,1.7-2.45,0-1.87-1.13-2.66-3.14-2.66h-2.89v8.74s0,0,0,0h1.2ZM70.31,1.26h1.6c.91,0,2.05.2,2.05,1.68s-1.09,1.7-2.05,1.7h-1.6V1.26Z"/>
      <path class="cls-2" d="M84.98,8.98s.01,0,.02,0V.25h-1.22v8.73s.01,0,.02,0h1.19Z"/>
      <path class="cls-2" d="M95.03.25l4.56,6.86-.07-6.86h1.21v8.73s0,0-.01,0h-1.15s0,0-.01,0l-4.58-6.85.1,6.85s0,0-.01,0h-1.2s0,0-.01,0V.25h1.19Z"/>
      <path class="cls-2" d="M140.64,6.27c-.16,1.04-.97,1.9-2.26,1.9-1.79,0-2.71-1.2-2.71-3.55s.91-3.53,2.72-3.53c1.28,0,2.11.81,2.28,1.96l1.23-.06s.03,0,.04-.01c-.18-1.73-1.49-2.97-3.53-2.97-2.48,0-4.02,1.51-4.02,4.62s1.56,4.63,3.99,4.63c1.98,0,3.32-1.2,3.53-2.86l-1.28-.11Z"/>
      <path class="cls-2" d="M60.65.24h-6.93s0,0,0,0v1.05s0,0,0,0h2.93v7.69s0,0,.01,0h1.2s0,0,.01,0V1.29h2.78V.24Z"/>
    </g>
  </g>
</svg>